<?xml version="1.0" encoding="UTF-8"?>
<!-- Created with Inkscape (http://www.inkscape.org/) -->
<svg width="256" height="284.05" version="1.1" viewBox="0 0 67.733 75.154" xmlns="http://www.w3.org/2000/svg">
 <g transform="matrix(.64674 0 0 -.64674 -72.19 307.58)" stroke-width=".54547">
  <g stroke-width=".54547">
   <g transform="translate(157.29 368.01)">
    <path d="m0 0h2.539v-0.368h-1.976v-1.126h1.854v-0.368h-1.854v-1.136h2.102v-0.368h-2.665z" fill="#fc766a"/>
   </g>
   <g transform="translate(163.77 364.64)">
    <path d="m0 0h-0.693l-1.997 2.781v-2.781h-0.563v3.366h0.692l1.998-2.782v2.782h0.563z" fill="#fc766a"/>
   </g>
   <g transform="translate(166.04 368.01)">
    <path d="m0 0h3.409v-0.368h-1.43v-2.998h-0.549v2.998h-1.43z" fill="#fc766a"/>
   </g>
   <g transform="translate(171.27 366.55)">
    <path d="m0 0c0.52 0 0.918 0.112 0.918 0.546 0 0.433-0.398 0.541-0.918 0.541h-0.866v-1.087zm0 1.455c1.04 0 1.512-0.29 1.512-0.909 0-0.516-0.433-0.763-1.018-0.763 0.316-0.039 0.672-0.186 0.771-0.576 0.23-0.884 0.269-1.031 0.334-1.118h-0.585c-0.065 0.087-0.104 0.256-0.286 1.023-0.091 0.381-0.317 0.519-1.031 0.519h-0.563v-1.542h-0.564v3.366z" fill="#fc766a"/>
   </g>
   <g transform="translate(174.46 366.08)">
    <path d="m0 0h1.551l-0.697 1.559h-0.152zm1.716-0.368h-1.885l-0.48-1.07h-0.599l1.56 3.365h0.927l1.56-3.365h-0.603z" fill="#fc766a"/>
   </g>
   <g transform="translate(180.99 364.64)">
    <path d="m0 0h-0.693l-1.997 2.781v-2.781h-0.563v3.366h0.692l1.998-2.782v2.782h0.563z" fill="#fc766a"/>
   </g>
   <g transform="translate(183.74 366.51)">
    <path d="m0 0c0.732-0.165 0.988-0.533 0.988-0.971 0-0.632-0.629-0.961-1.443-0.961-1.313 0-1.715 0.745-1.737 1.2l0.58 0.169s-0.103-0.94 1.144-0.94c0.546 0 0.871 0.229 0.871 0.506 0 0.325-0.269 0.421-0.763 0.538l-0.818 0.19c-0.576 0.135-0.858 0.455-0.858 0.858 0 0.507 0.411 0.966 1.356 0.966 1.473 0 1.508-1.005 1.508-1.005l-0.581-0.156s0.061 0.732-0.953 0.732c-0.455 0-0.745-0.199-0.745-0.485 0-0.256 0.221-0.368 0.593-0.451z" fill="#fc766a"/>
   </g>
  </g>
  <path d="m185.85 364.64h-0.563v3.366h0.563z" fill="#fc766a"/>
  <g transform="translate(189.57 366.5)" stroke-width=".54547">
   <path d="m0 0s-0.043 1.139-1.196 1.139c-0.814 0-1.282-0.572-1.282-1.317 0-0.74 0.511-1.312 1.326-1.312 1.217 0 1.243 1.07 1.243 1.07l0.58-0.169s-0.134-1.33-1.823-1.33c-1.196 0-1.92 0.732-1.92 1.741 0 1.014 0.68 1.746 1.876 1.746 1.638 0 1.777-1.395 1.777-1.395z" fill="#fc766a"/>
  </g>
  <path d="m191.46 364.64h-0.563v3.366h0.563z" fill="#fc766a"/>
  <g transform="translate(194.76 369.16)" stroke-width=".54547">
   <path d="m0 0-0.862-0.814h-0.29l0.502 0.814zm-0.693-1.521c-0.814 0-1.369-0.572-1.369-1.317 0-0.741 0.555-1.312 1.369-1.312 0.819 0 1.373 0.571 1.373 1.312 0 0.745-0.554 1.317-1.373 1.317m0-3.058c-1.196 0-1.962 0.732-1.962 1.741 0 1.014 0.766 1.746 1.962 1.746 1.195 0 1.967-0.732 1.967-1.746 0-1.009-0.772-1.741-1.967-1.741" fill="#fc766a"/>
  </g>
  <g transform="translate(178.36 361.32)" stroke-width=".54547">
   <path d="m0 0c0.732-0.165 0.988-0.533 0.988-0.97 0-0.633-0.628-0.962-1.443-0.962-1.313 0-1.715 0.745-1.737 1.2l0.581 0.169s-0.104-0.94 1.143-0.94c0.546 0 0.871 0.23 0.871 0.507 0 0.325-0.269 0.42-0.762 0.537l-0.819 0.19c-0.576 0.135-0.858 0.456-0.858 0.858 0 0.507 0.411 0.966 1.356 0.966 1.473 0 1.508-1.005 1.508-1.005l-0.581-0.155s0.061 0.731-0.953 0.731c-0.455 0-0.745-0.199-0.745-0.485 0-0.255 0.221-0.368 0.594-0.45z" fill="#fc766a"/>
  </g>
  <path d="m179.91 360.07h0.563v-0.628h-0.563z" fill="#fc766a"/>
  <g transform="translate(184.2 361.3)" stroke-width=".54547">
   <path d="m0 0s-0.043 1.139-1.196 1.139c-0.814 0-1.282-0.572-1.282-1.317 0-0.74 0.511-1.312 1.326-1.312 1.217 0 1.243 1.07 1.243 1.07l0.58-0.169s-0.134-1.33-1.823-1.33c-1.196 0-1.919 0.732-1.919 1.741 0 1.014 0.68 1.746 1.875 1.746 1.638 0 1.777-1.395 1.777-1.395z" fill="#fc766a"/>
  </g>
  <path d="m185.52 360.07h0.563v-0.628h-0.563z" fill="#fc766a"/>
  <g transform="translate(189.8 361.3)" stroke-width=".54547">
   <path d="m0 0s-0.043 1.139-1.195 1.139c-0.815 0-1.283-0.572-1.283-1.317 0-0.74 0.511-1.312 1.326-1.312 1.217 0 1.243 1.07 1.243 1.07l0.581-0.169s-0.134-1.33-1.824-1.33c-1.196 0-1.919 0.732-1.919 1.741 0 1.014 0.68 1.746 1.876 1.746 1.637 0 1.776-1.395 1.776-1.395z" fill="#fc766a"/>
  </g>
  <path d="m191.12 360.07h0.563v-0.628h-0.563z" fill="#fc766a"/>
  <g transform="translate(192.46 362.81)" stroke-width=".54547">
   <path d="m0 0h0.563v-2.998h1.928v-0.368h-2.491z" fill="#fc766a"/>
  </g>
  <path d="m195.34 360.07h0.563v-0.628h-0.563z" fill="#fc766a"/>
  <g stroke-width=".54547">
   <g transform="translate(193.05 450.65)">
    <path d="m0 0s-4.159-5.92-5.633-7.829c-0.651-0.841-2.221-2.681-3.997-1.459-1.777 1.221-0.927 3.48-0.174 4.222 1.964 1.938 9.804 5.066 9.804 5.066" fill="#fc766a"/>
   </g>
   <g transform="translate(182.34 465.51)">
    <path d="m0 0s-4.183-5.904-5.664-7.806c-0.654-0.84-2.231-2.673-4.003-1.444-1.772 1.228-0.913 3.484-0.157 4.223 1.971 1.93 9.824 5.027 9.824 5.027" fill="#fc766a"/>
   </g>
   <g transform="translate(151.95 458.44)">
    <path d="m 0,0 c 0,0 -3.023,6.574 -3.93,8.808 -0.4,0.985 -1.199,3.268 0.75,4.189 1.95,0.92 3.474,-0.952 3.737,-1.975 C 1.243,8.35 0,0 0,0" fill="#fc766a"/>
   </g>
   <g transform="translate(132.31 448)">
    <path d="m0 0s-6.474 3.231-8.581 4.404c-0.929 0.517-2.982 1.796-2.039 3.735s3.304 1.434 4.15 0.801c2.208-1.653 6.47-8.94 6.47-8.94" fill="#fc766a"/>
   </g>
   <g transform="translate(125.07 427.07)">
    <path d="m0 0s-7.036-1.687-9.404-2.142c-1.045-0.201-3.439-0.541-3.963 1.55-0.524 2.092 1.609 3.223 2.664 3.281 2.755 0.154 10.703-2.689 10.703-2.689" fill="#fc766a"/>
   </g>
   <g transform="translate(129.17 407.71)">
    <path d="m0 0s-3.094-6.541-4.223-8.671c-0.498-0.94-1.733-3.019-3.691-2.118-1.958 0.903-1.503 3.273-0.888 4.132 1.607 2.243 8.802 6.657 8.802 6.657" fill="#fc766a"/>
   </g>
   <g transform="translate(145.83 396.73)">
    <path d="m0 0s-1.248-7.127-1.77-9.481c-0.231-1.039-0.87-3.371-2.998-3.02-2.127 0.35-2.317 2.756-1.952 3.748 0.954 2.588 6.72 8.753 6.72 8.753" fill="#fc766a"/>
   </g>
   <g transform="translate(176.04 467.18)">
    <path d="m0 0 17.126-21.875s12.263 13.025 5.17 22.684-22.296-0.809-22.296-0.809"/>
   </g>
   <g transform="translate(196.54 465.43)">
    <path d="m0 0c0.374-0.574 0.627-1.218 0.844-1.871 0.208-0.657 0.347-1.337 0.429-2.026 0.158-1.378 0.076-2.797-0.268-4.153-0.078-0.341-0.189-0.673-0.294-1.006-0.122-0.327-0.238-0.656-0.386-0.972-0.135-0.322-0.302-0.628-0.462-0.936-0.177-0.299-0.344-0.603-0.544-0.886-0.775-1.146-1.721-2.164-2.819-2.972 0.773 1.121 1.491 2.237 2.085 3.404 0.079 0.143 0.148 0.291 0.215 0.439l0.209 0.442c0.12 0.302 0.262 0.594 0.367 0.901 0.235 0.603 0.425 1.22 0.579 1.846 0.317 1.25 0.464 2.54 0.471 3.844 2e-3 1.304-0.125 2.622-0.426 3.946" fill="#fff"/>
   </g>
   <g transform="translate(154.43 428.96)">
    <path d="m0 0s-0.218 4.941 5.877 4.941h22.893c-2.653 12.219-13.527 21.372-26.541 21.372-15 0-27.16-12.161-27.16-27.161 0-14.25 10.973-25.935 24.931-27.069z" fill="#fc766a"/>
   </g>
   <g transform="translate(205.35 381.89)">
    <path d="m0 0-0.053 0.574-0.068 0.572c-0.042 0.382-0.103 0.761-0.157 1.141-0.468 3.037-1.213 6.019-2.019 8.978-0.816 2.957-1.72 5.888-2.662 8.805-0.239 0.741-0.481 1.48-0.725 2.219l-0.196-0.533c0.201-0.597 0.401-1.194 0.599-1.791 0.963-2.907 1.887-5.828 2.723-8.773 0.827-2.946 1.592-5.917 2.079-8.936 0.057-0.378 0.121-0.755 0.165-1.134l0.072-0.569 0.057-0.57c0.043-0.379 0.058-0.761 0.087-1.142 0.01-0.381 0.033-0.762 0.023-1.143-4e-3 -0.762-0.05-1.526-0.186-2.275-0.134-0.747-0.35-1.483-0.693-2.16-0.347-0.674-0.83-1.275-1.418-1.754-0.585-0.485-1.275-0.829-1.988-1.093-1.436-0.519-2.971-0.716-4.493-0.84-1.526-0.114-3.059-0.141-4.59-0.153l-4.597-0.011 4.597-0.023c1.532 1e-3 3.065 0.017 4.596 0.12 1.526 0.113 3.066 0.298 4.522 0.812 0.722 0.261 1.427 0.605 2.028 1.096 0.603 0.485 1.104 1.098 1.464 1.784 0.355 0.689 0.581 1.437 0.722 2.195 0.144 0.759 0.196 1.531 0.206 2.3 0.012 0.385-9e-3 0.769-0.015 1.154-0.027 0.383-0.039 0.768-0.08 1.15" fill="#fc766a"/>
   </g>
   <g transform="translate(215.99 469.06)">
    <path d="m0 0c-0.193 0.769-0.427 1.519-0.737 2.253-0.311 0.731-0.688 1.45-1.191 2.099-0.25 0.325-0.534 0.628-0.845 0.907-0.318 0.272-0.666 0.514-1.042 0.712-0.756 0.387-1.613 0.575-2.444 0.561-0.835-5e-3 -1.642-0.179-2.406-0.43-0.763-0.257-1.487-0.593-2.179-0.973-1.383-0.765-2.646-1.696-3.838-2.697-1.191-1.01-2.306-2.074-3.364-3.245l0.817-0.711c0.988 1.11 2.086 2.177 3.226 3.156 1.146 0.977 2.357 1.88 3.651 2.609 0.648 0.363 1.318 0.677 2.006 0.915 0.688 0.231 1.396 0.386 2.096 0.395 0.701 0.016 1.384-0.134 1.996-0.439 0.303-0.157 0.588-0.352 0.855-0.575 0.26-0.232 0.504-0.486 0.724-0.767 0.875-1.13 1.416-2.557 1.788-3.987 0.354-1.437 0.465-2.929 0.234-4.383-0.118-0.724-0.298-1.441-0.561-2.131-0.265-0.69-0.589-1.359-0.963-2.003-0.383-0.64-0.807-1.257-1.265-1.852-0.467-0.589-0.956-1.162-1.474-1.713-2.077-2.202-4.46-4.126-6.834-6.058-2.375-1.934-4.778-3.863-6.964-6.05-1.096-1.089-2.125-2.252-3.049-3.5-0.455-0.629-0.895-1.271-1.279-1.949-0.204-0.332-0.375-0.683-0.558-1.027-0.087-0.174-0.166-0.353-0.249-0.529-0.084-0.176-0.165-0.353-0.234-0.536-0.443-1.029-0.757-2.108-0.953-3.207h0.596c0.197 1.018 0.5 2.016 0.918 2.971 0.068 0.175 0.148 0.346 0.23 0.515s0.158 0.341 0.244 0.509c0.179 0.331 0.347 0.668 0.546 0.988 0.377 0.653 0.809 1.274 1.255 1.882 0.909 1.209 1.924 2.34 3.01 3.403 2.165 2.136 4.565 4.034 6.955 5.95 2.388 1.917 4.806 3.836 6.957 6.081 0.535 0.562 1.047 1.15 1.535 1.759 0.481 0.616 0.932 1.259 1.341 1.931 0.4 0.679 0.752 1.389 1.041 2.128 0.289 0.74 0.49 1.515 0.623 2.301 0.264 1.576 0.153 3.199-0.215 4.737" fill="#fc766a"/>
   </g>
   <g transform="translate(157.39 372.14)">
    <path d="m0 0c-0.549 0.548-0.823 1.227-0.823 2.036v23.475h5.804v-20.53h1.04v21.656h-3.985c-0.81 0-1.488 0.273-2.036 0.823-0.549 0.548-0.823 1.226-0.823 2.036v27.46c0 0.808 0.274 1.485 0.823 2.035 0.548 0.548 1.226 0.823 2.036 0.823h6.93c0.807 0 1.486-0.275 2.035-0.823 0.548-0.55 0.823-1.227 0.823-2.035v-23.476h-5.803v20.53h-1.04v-21.569h3.985c0.807 0 1.486-0.29 2.035-0.867 0.548-0.577 0.823-1.27 0.823-2.078v-27.46c0-0.809-0.275-1.488-0.823-2.036-0.549-0.549-1.228-0.823-2.035-0.823h-6.93c-0.81 0-1.488 0.274-2.036 0.823"/>
   </g>
   <g transform="translate(170.9 371.31)">
    <path d="m0 0v60.637h12.647v-26.334h-5.804v20.53h-1.039v-21.569h6.843v-5.805h-6.843v-21.655h1.039v20.529h5.804v-26.333z"/>
   </g>
  </g>
  <path d="m191.04 377.12h1.04v18.104h-1.04zm0 30.838h1.04v18.191h-1.04zm3.985-36.642h-9.788v60.637h9.788c0.808 0 1.486-0.29 2.036-0.866 0.548-0.578 0.823-1.271 0.823-2.079v-23.995c0-0.81-0.275-1.488-0.823-2.036-0.55-0.549-1.228-0.822-2.036-0.822h-3.985v-1.127h3.985c0.808 0 1.486-0.274 2.036-0.823 0.548-0.549 0.823-1.227 0.823-2.035v-23.995c0-0.809-0.275-1.488-0.823-2.036-0.55-0.549-1.228-0.823-2.036-0.823"/>
 </g>
</svg>
